# xmcd
#
# Track frame offsets: 
#        150
#        11986
#        28865
#
# Disc length: 615 seconds
#
# Revision: 1
# Processed by: cddbd v1.5.2PL0 Copyright (c) Steve Scherf et al.
# Submitted via: ExactAudioCopyFreeDBPlugin 1.0
#
DISCID=20026503
DTITLE=Doc Yates Band - Blue Skies, Green Eyes [EP]
DYEAR=2015
DGENRE=Country
TTITLE0=Blue Skies, Green Eyes
TTITLE1=Four Fingers Of Whiskey
TTITLE2=All That I Needed
EXTD=
EXTT0=
EXTT1=
EXTT2=
PLAYORDER=
